<svg xmlns="http://www.w3.org/2000/svg" viewBox="0 0 163.8 163.8"><defs><style>.cls-1{fill:#a67c52;}</style></defs><title>axka</title><g id="outer"><path class="cls-1" d="M410.3,199.1A81.9,81.9,0,1,0,328.4,281,81.9,81.9,0,0,0,410.3,199.1ZM300.94,237.35q0-38.34,0-76.68a9,9,0,0,1,7-9.21,10.58,10.58,0,0,1,2.7-.26c12.58,0,25.16,0,37.74,0a9.21,9.21,0,0,1,9.37,7.06,13.6,13.6,0,0,1,.24,2.92q0,18.93,0,37.85t0,38a9.88,9.88,0,0,1-1.63,6,9.19,9.19,0,0,1-7.88,3.9q-19,0-38.07,0A9.08,9.08,0,0,1,300.94,237.35Z" transform="translate(-246.5 -117.2)"/><path class="cls-1" d="M353,164.74a40.48,40.48,0,0,0,0-4.81c-.28-2.33-2.32-3.82-5-3.83q-18.54,0-37.07,0a6.32,6.32,0,0,0-1.73.22,4.09,4.09,0,0,0-3.2,3.48,36.73,36.73,0,0,0,0,4.93ZM324.55,158c3.27,0,6.54,0,9.8,0,1.81,0,2.66.8,2.67,2.42s-.83,2.45-2.61,2.48-3.26,0-4.9,0-3.34,0-5,0-2.61-.92-2.58-2.52S322.89,158,324.55,158Z" transform="translate(-246.5 -117.2)"/><path class="cls-1" d="M353.12,236.7c-.07-21.9,0-43.79,0-65.68v-1.2H306c0,.38,0,.63,0,.88,0,22.08,0,44.15,0,66.22a4.89,4.89,0,0,0,5,5q18.54-.15,37.09,0A5,5,0,0,0,353.12,236.7Zm-34.48-23a4.56,4.56,0,0,1,4.77-4.69,4.46,4.46,0,0,1,4.68,4.73,4.51,4.51,0,0,1-4.72,4.73A4.62,4.62,0,0,1,318.64,213.71Zm10.75,24a4.72,4.72,0,0,1,.13-9.43,4.72,4.72,0,1,1-.13,9.43Zm6.43-19.24a4.55,4.55,0,0,1-4.69-4.79,4.74,4.74,0,0,1,9.48.1A4.56,4.56,0,0,1,335.82,218.47Zm10.23-25.06c-1.72,4.16-3.56,8.27-5.38,12.39a2.21,2.21,0,0,1-2.19,1.34H321.14a2.3,2.3,0,0,1-2.62-2.08q-2.88-12.2-5.71-24.39c-.52-2.25.51-3.58,2.57-3.5,1.21.05,2,.78,2.32,2.33.77,3.25,1.51,6.51,2.27,9.77q1.39,6,2.8,12c.07.28.15.55.25.92h6c2.33,0,4.66,0,7,0,.33,0,.85-.19,1-.43,1-2.28,2-4.58,3-7h-1.21c-3.2,0-6.39,0-9.59,0a2.27,2.27,0,0,1-2.57-2.45,2.25,2.25,0,0,1,2.5-2.5c4.91,0,9.82,0,14.72,0C345.81,189.77,346.86,191.44,346.05,193.41Z" transform="translate(-246.5 -117.2)"/></g><g id="inner"><path d="M348.49,246.84a9.19,9.19,0,0,0,7.88-3.9,9.88,9.88,0,0,0,1.63-6q0-19,0-38t0-37.85a13.6,13.6,0,0,0-.24-2.92,9.21,9.21,0,0,0-9.37-7.06c-12.58.08-25.16,0-37.74,0a10.58,10.58,0,0,0-2.7.26,9,9,0,0,0-7,9.21q0,38.34,0,76.68a9.08,9.08,0,0,0,9.48,9.49Q329.46,246.89,348.49,246.84Zm-42.46-87a4.09,4.09,0,0,1,3.2-3.48,6.32,6.32,0,0,1,1.73-.22q18.53,0,37.07,0c2.64,0,4.68,1.5,5,3.83a40.48,40.48,0,0,1,0,4.81H306A36.73,36.73,0,0,1,306,159.81Zm4.86,82.06a4.89,4.89,0,0,1-5-5c.06-22.07,0-44.14,0-66.22,0-.25,0-.5,0-.88h47.11V171c0,21.89,0,43.78,0,65.68a5,5,0,0,1-5.14,5.17Q329.44,241.72,310.89,241.87Z" transform="translate(-246.5 -117.2)"/><path d="M343.85,189.75c-4.9-.05-9.81,0-14.72,0a2.25,2.25,0,0,0-2.5,2.5,2.27,2.27,0,0,0,2.57,2.45c3.2,0,6.39,0,9.59,0H340c-1.05,2.44-2,4.74-3,7-.11.24-.63.42-1,.43-2.32,0-4.65,0-7,0h-6c-.1-.37-.18-.64-.25-.92q-1.39-6-2.8-12c-.76-3.26-1.5-6.52-2.27-9.77-.36-1.55-1.11-2.28-2.32-2.33-2.06-.08-3.09,1.25-2.57,3.5q2.81,12.21,5.71,24.39a2.3,2.3,0,0,0,2.62,2.08h17.34a2.21,2.21,0,0,0,2.19-1.34c1.82-4.12,3.66-8.23,5.38-12.39C346.86,191.44,345.81,189.77,343.85,189.75Z" transform="translate(-246.5 -117.2)"/><path d="M335.92,209a4.49,4.49,0,0,0-4.79,4.66,4.74,4.74,0,0,0,9.48.1A4.5,4.5,0,0,0,335.92,209Z" transform="translate(-246.5 -117.2)"/><path d="M329.52,228.28A4.72,4.72,0,1,0,334.2,233,4.46,4.46,0,0,0,329.52,228.28Z" transform="translate(-246.5 -117.2)"/><path d="M328.09,213.75a4.46,4.46,0,0,0-4.68-4.73,4.56,4.56,0,0,0-4.77,4.69,4.62,4.62,0,0,0,4.73,4.77A4.51,4.51,0,0,0,328.09,213.75Z" transform="translate(-246.5 -117.2)"/><path d="M324.5,162.91c1.67,0,3.34,0,5,0s3.27,0,4.9,0,2.61-.84,2.61-2.48-.86-2.41-2.67-2.42c-3.26,0-6.53,0-9.8,0-1.66,0-2.6.87-2.63,2.38S322.79,162.88,324.5,162.91Z" transform="translate(-246.5 -117.2)"/></g></svg>