<svg xmlns="http://www.w3.org/2000/svg" viewBox="0 0 219.5 219.5"><defs><style>.cls-1{fill:#f7931e;}</style></defs><title>cuddlebit-2</title><g id="outer"><path class="cls-1" d="M348,242.25A109.75,109.75,0,1,0,238.25,352,109.75,109.75,0,0,0,348,242.25ZM219.47,289.49a164.8,164.8,0,0,1-19-18c-1.92-2.14-6.74-5.87-6.53-9.06a4.38,4.38,0,0,1,5.31-4.09c2.78.55,5.32,5.34,7,7.21,3.16,3.53,6.51,6.91,10,10.13a177.73,177.73,0,0,0,18.49,14.79c4.19,2.93,4.89,4,9.32,1.29a112.85,112.85,0,0,0,12.1-9c12.73-10.34,25.72-23.16,33.49-37.8,7.52-14.18,3.26-34.24-13.33-38.93a26.33,26.33,0,0,0-24.37,5.06c-4.07,3.45-9,18.3-15.25,11.29-2.61-2.94-3.65-6.92-6.55-9.87a24.61,24.61,0,0,0-9.08-5.89c-7-2.57-15.7-2.26-22.2,1.59-7.91,4.67-11.25,12.51-11.32,21.4,0,3.17-.35,9.08,1.78,11.65,2.41,2.91,8,2.56,11.92,2.56,3.35,0,8.52,0,11.52-1.54s3.54-6.19,6.7-7.44c8.69-3.44,10.19,16.73,15.65,19.42,2.39,1.17,2.15.71,3.85-2.29,2.09-3.7,4.14-7.42,6.21-11.13,3.35-6,7.87-19.87,14.92-10.46,2.26,3,3.93,6.5,6.26,9.45,2.59,3.27,2.53,1.79,6,3.28,8.42,3.67-.52,10.29-6.47,8.5-3-.92-4.35-4-6-6.44-2.8-4.29-3.56-6.1-6.6-1.55-4.81,7.17-7.49,17.5-13.38,23.77-6.19,6.59-11.3-7.58-13.61-11.61-1.57-2.73-3.64-9.46-7-8-.58.25-1.8,2.21-2.33,2.58-1.95,1.37-4.14,1.41-6.42,1.48-4.48.14-9-.15-13.49-.12-3.49,0-8.42,1.11-11.54-.74-6-3.55-7.05-15.93-6.86-22.11A33.41,33.41,0,0,1,200.83,198a32.13,32.13,0,0,1,21.59,0,37.83,37.83,0,0,1,10.17,5.51c3,2.33,5.65,7.69,9.24,6.05,2.8-1.27,5.59-5.87,8.39-7.75a33,33,0,0,1,9.11-4.27A33.49,33.49,0,0,1,282.41,199c13.92,6.36,21.2,21.17,19.18,36.1-2.09,15.44-14.27,29-24.66,39.83a173,173,0,0,1-17.13,15.57c-4.18,3.34-14.69,13.66-20.24,12.9-3.19-.43-6.94-4.19-9.56-6Q224.6,293.62,219.47,289.49Z" transform="translate(-128.5 -132.5)"/></g><g id="inner"><path d="M259.8,290.52A173,173,0,0,0,276.93,275c10.39-10.82,22.57-24.39,24.66-39.83,2-14.93-5.26-29.74-19.18-36.1a33.49,33.49,0,0,0-23.08-1.46,33,33,0,0,0-9.11,4.27c-2.8,1.88-5.59,6.48-8.39,7.75-3.59,1.64-6.21-3.72-9.24-6.05A37.83,37.83,0,0,0,222.42,198a32.13,32.13,0,0,0-21.59,0,33.41,33.41,0,0,0-22.14,30.8c-.19,6.18.88,18.56,6.86,22.11,3.12,1.85,8,.76,11.54.74,4.48,0,9,.26,13.49.12,2.28-.07,4.47-.11,6.42-1.48.53-.37,1.75-2.33,2.33-2.58,3.32-1.42,5.39,5.31,7,8,2.31,4,7.42,18.2,13.61,11.61,5.89-6.27,8.57-16.6,13.38-23.77,3-4.55,3.8-2.74,6.6,1.55,1.61,2.48,2.93,5.52,6,6.44,6,1.79,14.89-4.83,6.47-8.5-3.43-1.49-3.37,0-6-3.28-2.33-2.95-4-6.44-6.26-9.45-7-9.41-11.57,4.48-14.92,10.46-2.07,3.71-4.12,7.43-6.21,11.13-1.7,3-1.46,3.46-3.85,2.29-5.46-2.69-7-22.86-15.65-19.42-3.16,1.25-3.82,6-6.7,7.44s-8.17,1.54-11.52,1.54c-3.9,0-9.51.35-11.92-2.56-2.13-2.57-1.8-8.48-1.78-11.65.07-8.89,3.41-16.73,11.32-21.4,6.5-3.85,15.17-4.16,22.2-1.59a24.61,24.61,0,0,1,9.08,5.89c2.9,2.95,3.94,6.93,6.55,9.87,6.22,7,11.18-7.84,15.25-11.29A26.33,26.33,0,0,1,276.31,206c16.59,4.69,20.85,24.75,13.33,38.93-7.77,14.64-20.76,27.46-33.49,37.8a112.85,112.85,0,0,1-12.1,9c-4.43,2.72-5.13,1.64-9.32-1.29a177.73,177.73,0,0,1-18.49-14.79c-3.48-3.22-6.83-6.6-10-10.13-1.67-1.87-4.21-6.66-7-7.21a4.38,4.38,0,0,0-5.31,4.09c-.21,3.19,4.61,6.92,6.53,9.06a164.8,164.8,0,0,0,19,18q5.13,4.13,10.53,7.91c2.62,1.83,6.37,5.59,9.56,6C245.11,304.18,255.62,293.86,259.8,290.52Z" transform="translate(-128.5 -132.5)"/></g></svg>