<svg xmlns="http://www.w3.org/2000/svg" viewBox="0 0 163.8 163.8"><defs><style>.cls-1{fill:#a67c52;}</style></defs><title>cuddlebit</title><g id="outer"><path class="cls-1" d="M333.68,160.14a5.38,5.38,0,0,0-5.32-5.24,5.26,5.26,0,0,0-5.27,5.23,5.53,5.53,0,0,0,5.6,5.28A5,5,0,0,0,333.68,160.14Z" transform="translate(-246.5 -117.2)"/><path class="cls-1" d="M283.68,209.53c.42,3.08,3.17,6.24,5.72,6.55v-16C285.61,201.7,283.17,205.83,283.68,209.53Z" transform="translate(-246.5 -117.2)"/><path class="cls-1" d="M361.88,220c.34-8.83.17-17.67.1-26.51-.05-6.53-4.76-11.07-11.3-11.07h-22c-7.5,0-15,0-22.52,0a10.66,10.66,0,0,0-6.36,2c-3.32,2.39-4.56,5.77-4.57,9.71q0,13.13,0,26.25c0,7.31,4.53,11.78,11.85,11.78,14.17,0,28.34,0,42.5,0a12,12,0,0,0,8.54-3.07A12.64,12.64,0,0,0,361.88,220Zm-52.29-10.94a7.75,7.75,0,1,1,7.73-7.73A7.89,7.89,0,0,1,309.59,209.07Zm25.6,13c-2.22,0-4.44,0-6.66,0s-4.44,0-6.66,0c-1.87,0-2.94-.94-3-2.51s1-2.66,2.94-2.68q6.66,0,13.33,0a2.64,2.64,0,0,1,2.9,2.77C338.06,221.21,337.07,222.07,335.19,222.09Zm12.1-13a7.74,7.74,0,1,1,7.89-7.53A7.79,7.79,0,0,1,347.29,209.06Z" transform="translate(-246.5 -117.2)"/><path class="cls-1" d="M410.3,199.1A81.9,81.9,0,1,0,328.4,281,81.9,81.9,0,0,0,410.3,199.1ZM290.06,225.73a1.38,1.38,0,0,1-.06-.26c.11-2.75-1.68-3.68-3.89-4.74a12.93,12.93,0,0,1-7.76-12.62,13.29,13.29,0,0,1,8.19-12.52,26,26,0,0,1,3.16-1.05,42,42,0,0,1,1.16-6.1,16.34,16.34,0,0,1,15.89-11.35c5.68,0,11.37,0,17.05,0h1.55v-6.82a10.45,10.45,0,0,1,.45-20.35,10,10,0,0,1,9.78,2.86,9.81,9.81,0,0,1,2.63,10.3,10.16,10.16,0,0,1-6.34,6.74,1.38,1.38,0,0,0-1.11,1.61c.07,1.85,0,3.71,0,5.74h1.68c6.12,0,12.26-.14,18.38.08,9,.31,15.58,7.07,16,16.1,0,.4,0,.79.06,1.22a13.76,13.76,0,0,1,7.37,3.77c3.93,4.11,4.54,9,3,14.24a12.81,12.81,0,0,1-9.26,9.26,1.65,1.65,0,0,0-1.37,1.59c-1.27,7.27-5.49,11.86-12.64,13.66a17,17,0,0,1-4.09.4q-21.8,0-43.58,0C298.43,237.49,292.27,233,290.06,225.73Z" transform="translate(-246.5 -117.2)"/><path class="cls-1" d="M309.55,198.78a2.39,2.39,0,0,0-2.55,2.58,2.42,2.42,0,0,0,2.58,2.56,2.48,2.48,0,0,0,2.57-2.6A2.42,2.42,0,0,0,309.55,198.78Z" transform="translate(-246.5 -117.2)"/><path class="cls-1" d="M372.65,209.54c.2-5-2-8.57-5.8-9.45v16.06A7.36,7.36,0,0,0,372.65,209.54Z" transform="translate(-246.5 -117.2)"/><path class="cls-1" d="M347.44,198.78a2.35,2.35,0,0,0-2.54,2.57,2.41,2.41,0,0,0,2.57,2.57,2.47,2.47,0,0,0,2.56-2.6A2.43,2.43,0,0,0,347.44,198.78Z" transform="translate(-246.5 -117.2)"/></g><g id="inner"><path d="M354,237.09c7.15-1.8,11.37-6.39,12.64-13.66a1.65,1.65,0,0,1,1.37-1.59,12.81,12.81,0,0,0,9.26-9.26c1.53-5.23.92-10.13-3-14.24a13.76,13.76,0,0,0-7.37-3.77c0-.43,0-.82-.06-1.22-.37-9-6.94-15.79-16-16.1-6.12-.22-12.26-.07-18.38-.08h-1.68c0-2,.05-3.89,0-5.74a1.38,1.38,0,0,1,1.11-1.61,10.16,10.16,0,0,0,6.34-6.74,9.81,9.81,0,0,0-2.63-10.3,10,10,0,0,0-9.78-2.86,10.45,10.45,0,0,0-.45,20.35v6.82H323.8c-5.68,0-11.37,0-17.05,0a16.34,16.34,0,0,0-15.89,11.35,42,42,0,0,0-1.16,6.1,26,26,0,0,0-3.16,1.05,13.29,13.29,0,0,0-8.19,12.52,12.93,12.93,0,0,0,7.76,12.62c2.21,1.06,4,2,3.89,4.74a1.38,1.38,0,0,0,.06.26c2.21,7.26,8.37,11.76,16.23,11.77q21.79,0,43.58,0A17,17,0,0,0,354,237.09Zm12.89-37c3.8.88,6,4.49,5.8,9.45a7.36,7.36,0,0,1-5.8,6.61Zm-77.45,16c-2.55-.31-5.3-3.47-5.72-6.55-.51-3.7,1.93-7.83,5.72-9.48Zm33.69-56a5.26,5.26,0,0,1,5.27-5.23,5.38,5.38,0,0,1,5.32,5.24,5,5,0,0,1-5,5.27A5.53,5.53,0,0,1,323.09,160.13Zm-16,72.08c-7.32,0-11.83-4.47-11.85-11.78q0-13.12,0-26.25c0-3.94,1.25-7.32,4.57-9.71a10.66,10.66,0,0,1,6.36-2c7.51,0,15,0,22.52,0h22c6.54,0,11.25,4.54,11.3,11.07.07,8.84.24,17.68-.1,26.51a12.64,12.64,0,0,1-3.74,9.15,12,12,0,0,1-8.54,3.07C335.44,232.2,321.27,232.22,307.1,232.21Z" transform="translate(-246.5 -117.2)"/><path d="M309.6,193.57a7.75,7.75,0,1,0,0,15.5,7.75,7.75,0,0,0,0-15.5Zm0,10.35a2.42,2.42,0,0,1-2.58-2.56,2.39,2.39,0,0,1,2.55-2.58,2.42,2.42,0,0,1,2.6,2.54A2.48,2.48,0,0,1,309.58,203.92Z" transform="translate(-246.5 -117.2)"/><path d="M347.67,193.58a7.74,7.74,0,1,0-.38,15.48,7.79,7.79,0,0,0,7.89-7.53A7.88,7.88,0,0,0,347.67,193.58Zm-.2,10.34a2.41,2.41,0,0,1-2.57-2.57,2.35,2.35,0,0,1,2.54-2.57,2.43,2.43,0,0,1,2.59,2.54A2.47,2.47,0,0,1,347.47,203.92Z" transform="translate(-246.5 -117.2)"/><path d="M335.16,216.9q-6.66,0-13.33,0c-1.93,0-3,1-2.94,2.68s1.11,2.49,3,2.51c2.22,0,4.44,0,6.66,0s4.44,0,6.66,0c1.88,0,2.87-.88,2.87-2.42A2.64,2.64,0,0,0,335.16,216.9Z" transform="translate(-246.5 -117.2)"/></g></svg>