<svg xmlns="http://www.w3.org/2000/svg" viewBox="0 0 219.5 219.5"><defs><style>.cls-1{fill:#f7931e;}</style></defs><title>doughnut-2</title><g id="outer"><path class="cls-1" d="M236.44,219.15c33.25,0,34.39-50.93,1.15-52.32a26.17,26.17,0,1,0-1.15,52.32Zm-9.76-19.24c1.17-4.64,5.42-.35,7.34.25,1.73.54,7.09.82,5.93-2.56-.76-2.24-5.19-1.44-7.13-2.21-6.55-2.59-7.65-9.49-2.61-14.09.85-.77,1.94-1.09,2.74-2s.7-2.75,1.75-3.51c2.3-1.67,4.89.36,5.23,3.07a1.44,1.44,0,0,0,.57.94c2.2,1.7,6.8,3.4,5.16,6.47-1.93,3.61-4.82,0-7.37-.56-1.83-.42-6.56-.4-5.17,2.83.89,2.09,5.45,1.34,7.32,2.13,7.56,3.24,7.16,10.76.42,14.61-1.57.9-2.16,5.11-3.94,5.38-2.8.44-2.29-2.89-3.76-4.41C231.45,204.47,225.84,203.24,226.68,199.91Z" transform="translate(-128.5 -116.5)"/><path class="cls-1" d="M272,262.11c1.12-1.94,0-8.34,0-10.66,0-2.06,1.13-9.06,0-10.66-1.34-1.93-3.67-1.58-6.18-1.74-5.89-.36-13-.49-18.44,2.24-5,2.51-5.17,5.57-11.39,5.65-3.57,0-11.11-1.51-13.86,1.33-4.51,4.64,2.57,5.37,5.64,5.55,6.13.35,13.72-1.43,19.66,0,4.62,1.14,5.59,5,.21,6.42-5.69,1.49-14.2.07-20.09-.15-6.4-.24-8.7-3.1-14-5.68-4.72-2.29-11.16-5.39-16.42-6-2.17-.24-5.35-.48-5.45,2.55-.09,2.61,3.09,3.1,5,4,5.94,2.79,11.78,5.82,17.65,8.74,5.06,2.51,10.14,5.73,15.48,7.63,5.71,2,11.69.56,17.39-.71a185.37,185.37,0,0,0,19.16-5.53C268.64,264.36,270.84,264.13,272,262.11Z" transform="translate(-128.5 -116.5)"/><path class="cls-1" d="M348,226.25A109.75,109.75,0,1,0,238.25,336,109.75,109.75,0,0,0,348,226.25ZM235.87,160.53c17.25-.39,32.06,13.72,33.05,30.85,1.05,18.06-14.37,33.79-32.27,34.17-17.26-.33-32.21-14.46-32.63-31.9C203.59,176.05,218.37,160.92,235.87,160.53Zm-2.14,118.33c-5.19-.52-10.26-4-14.85-6.24q-9.34-4.56-18.67-9.17c-4.27-2.12-11.35-4-13.8-8.37-2.69-4.83.55-10.27,5.24-12.33,5.29-2.32,11.25,1.31,16.25,3.13,1.75.64,5,2.55,6.8,2s3.24-3.91,5-5.07c3.92-2.53,8.89-2.28,13.35-2.32,3.55,0,5.12.21,7.87-1.75a30.77,30.77,0,0,1,6.25-3.84c4.9-2,10.55-2.5,15.78-2.41,2.58,0,5.65,1.09,8.11.76s2.44-1.2,4.42-2.5c5.46-3.57,12.48-2.29,18.81-2.28,2.38,0,7.2-.82,8.69,1.67s-.5,3.81-2.73,4.61c-2.59.92-6.34.16-9.09.16-2.37,0-8.67-1.13-10.69,0-3.81,2.07-2.1,11.47-2.1,15.49,0,3.15-1.67,11.93.5,14.51,2.75,3.28,10.15-.85,13.64,1.75,5.54,4.12-3.1,5.61-6,5.62-2.54,0-5.43.27-7.84-.53-3.24-1.08-4.14-2.52-7.69-1.87C259,272.08,246.33,280.14,233.73,278.86Z" transform="translate(-128.5 -116.5)"/></g><g id="inner"><path d="M278.7,271.74c2.41.8,5.3.54,7.84.53,2.91,0,11.55-1.5,6-5.62-3.49-2.6-10.89,1.53-13.64-1.75-2.17-2.58-.5-11.36-.5-14.51,0-4-1.71-13.42,2.1-15.49,2-1.1,8.32,0,10.69,0,2.75,0,6.5.76,9.09-.16,2.23-.8,4.23-2.09,2.73-4.61s-6.31-1.66-8.69-1.67c-6.33,0-13.35-1.29-18.81,2.28-2,1.3-1.86,2.16-4.42,2.5s-5.53-.72-8.11-.76c-5.23-.09-10.88.43-15.78,2.41a30.77,30.77,0,0,0-6.25,3.84c-2.75,2-4.32,1.73-7.87,1.75-4.46,0-9.43-.21-13.35,2.32-1.8,1.16-3.2,4.54-5,5.07s-5-1.38-6.8-2c-5-1.82-11-5.45-16.25-3.13-4.69,2.06-7.93,7.5-5.24,12.33,2.45,4.39,9.53,6.25,13.8,8.37q9.33,4.6,18.67,9.17c4.59,2.25,9.66,5.72,14.85,6.24,12.6,1.28,25.26-6.78,37.28-9C274.56,269.22,275.46,270.66,278.7,271.74Zm-31.53-1.06c-5.7,1.27-11.68,2.73-17.39.71-5.34-1.9-10.42-5.12-15.48-7.63-5.87-2.92-11.71-5.95-17.65-8.74-1.91-.9-5.09-1.39-5-4,.1-3,3.28-2.79,5.45-2.55,5.26.59,11.7,3.69,16.42,6,5.33,2.58,7.63,5.44,14,5.68,5.89.22,14.4,1.64,20.09.15,5.38-1.4,4.41-5.28-.21-6.42-5.94-1.47-13.53.31-19.66,0-3.07-.18-10.15-.91-5.64-5.55,2.75-2.84,10.29-1.29,13.86-1.33,6.22-.08,6.39-3.14,11.39-5.65,5.44-2.73,12.55-2.6,18.44-2.24,2.51.16,4.84-.19,6.18,1.74,1.12,1.6,0,8.6,0,10.66,0,2.32,1.13,8.72,0,10.66s-3.36,2.25-5.67,3A185.37,185.37,0,0,1,247.17,270.68Z" transform="translate(-128.5 -116.5)"/><path d="M236.65,225.55c17.9-.38,33.32-16.11,32.27-34.17-1-17.13-15.8-31.24-33.05-30.85-17.5.39-32.28,15.52-31.85,33.12C204.44,211.09,219.39,225.22,236.65,225.55Zm.94-58.72c33.24,1.39,32.1,52.37-1.15,52.32a26.17,26.17,0,1,1,1.15-52.32Z" transform="translate(-128.5 -116.5)"/><path d="M233.16,206.24c1.47,1.52,1,4.85,3.76,4.41,1.78-.27,2.37-4.48,3.94-5.38,6.74-3.85,7.14-11.37-.42-14.61-1.87-.79-6.43,0-7.32-2.13-1.39-3.23,3.34-3.25,5.17-2.83,2.55.57,5.44,4.17,7.37.56,1.64-3.07-3-4.77-5.16-6.47a1.44,1.44,0,0,1-.57-.94c-.34-2.71-2.93-4.74-5.23-3.07-1,.76-.94,2.57-1.75,3.51s-1.89,1.24-2.74,2c-5,4.6-3.94,11.5,2.61,14.09,1.94.77,6.37,0,7.13,2.21,1.16,3.38-4.2,3.1-5.93,2.56-1.92-.6-6.17-4.89-7.34-.25C225.84,203.24,231.45,204.47,233.16,206.24Z" transform="translate(-128.5 -116.5)"/></g></svg>