<svg xmlns="http://www.w3.org/2000/svg" viewBox="0 0 163.8 163.8"><defs><style>.cls-1{fill:#a67c52;}</style></defs><title>doughnut</title><g id="outer"><path class="cls-1" d="M410.29,199.1A81.9,81.9,0,1,0,328.4,281,81.89,81.89,0,0,0,410.29,199.1Zm-84.64-51c14,0,25.25,11.59,25.62,25.21a25.9,25.9,0,1,1-25.62-25.21Zm-7.3,92.52-19.73-9.74c-3.21-1.59-6.43-3.17-9.67-4.69a6.86,6.86,0,0,1-4.1-4.84c-.55-2.42.95-5.8,3.32-7.37a7.56,7.56,0,0,1,7-1.18c3.87,1.39,7.75,2.78,11.61,4.2,1.38.51,1.46.51,2.2-.75a9.28,9.28,0,0,1,7.49-4.59c3.26-.32,6.56-.22,9.84-.26a2.18,2.18,0,0,0,1.74-.74,17.29,17.29,0,0,1,9.81-4.92,42.23,42.23,0,0,1,15-.11,1.8,1.8,0,0,0,2.12-.8,6.67,6.67,0,0,1,5.7-3q7.26,0,14.53,0c1.87,0,3.48,1.3,3.47,2.74s-1.68,2.74-3.48,2.75c-5,0-10,0-14.93,0-.78,0-1.16.28-1.27,1a17.72,17.72,0,0,0-.32,2.61c0,2.81,0,5.62,0,8.43v8.12c0,.37,0,.75,0,1.12.14,2.63.33,2.81,2.93,2.81,2,0,3.93,0,5.89,0a5.64,5.64,0,0,1,1.87.35,2.92,2.92,0,0,1,1.91,2.62,3.17,3.17,0,0,1-2.76,2.47c-3,.05-6.1.15-9.13-.1a7.05,7.05,0,0,1-3.37-1.67,2.16,2.16,0,0,0-2.21-.42c-4.43,1.44-8.82,3-13.32,4.25s-9.29,2.08-13.95,3A12.49,12.49,0,0,1,318.35,240.61Z" transform="translate(-246.5 -117.2)"/><path class="cls-1" d="M325.4,194.46c11.62,0,20.3-8.79,20.46-20.42a20.46,20.46,0,1,0-40.92-.06A20,20,0,0,0,325.4,194.46Zm2.52-16.62c-.06-.87-.67-1-1.33-1.08-1-.12-2.11-.1-3.12-.32a7.65,7.65,0,0,1-5.47-4.29c-1.44-3-.07-6.44,3.14-8.21a2.73,2.73,0,0,1,.45-.23,1.28,1.28,0,0,0,1.11-1.38,2.66,2.66,0,0,1,5.32-.27c.09.35.11.73.17,1.09l.21-.15a43.57,43.57,0,0,1,3.88,2.66,2.41,2.41,0,0,1,.24,3.74c-1.09,1.17-2.44,1.21-3.75,0-1.49-1.38-3.21-1.19-5-.89-1,.16-1,.93-.95,1.71s.58.92,1.18,1a27.09,27.09,0,0,1,3.62.41,7.69,7.69,0,0,1,5.18,4.34c1.43,2.94-.31,6.11-2.39,7.57a4.6,4.6,0,0,1-.6.37c-1,.47-1.83.93-2,2.3a2.77,2.77,0,0,1-2.64,2.14,3.17,3.17,0,0,1-2.56-2.78,1.09,1.09,0,0,0-.9-1.1,8,8,0,0,1-3.78-2.63,2.47,2.47,0,0,1,.18-3.63,2.38,2.38,0,0,1,3.6.19c1.47,1.52,3.24,1.46,5.08,1.14C327.81,179.34,328,178.68,327.92,177.84Z" transform="translate(-246.5 -117.2)"/><path class="cls-1" d="M353.25,228.44q0-8.22,0-16.45c0-.63-.17-.92-.82-1-5.26-.64-10.53-.86-15.72.5-2.18.58-4.26,1.47-5.58,3.44a4.1,4.1,0,0,1-3.77,1.92c-3.24,0-6.5-.06-9.74.09a9.41,9.41,0,0,0-3.35,1c-1.11.51-1,1.66-.9,2.68s1,.75,1.59.93a5.09,5.09,0,0,0,1.5.22c3.18,0,6.36,0,9.54,0v.14c2.81,0,5.62,0,8.43,0,1.66,0,3.19,1.43,3.19,2.74s-1.58,2.65-3.2,2.74h-.1c-6-.05-12.05,0-18.07-.17a8,8,0,0,1-5.83-2.25,8.94,8.94,0,0,0-3.53-2.24c-4.21-1.56-8.41-3.14-12.64-4.63a6,6,0,0,0-2.4-.16,2.08,2.08,0,0,0-1.7,1.89c-.18,1,.35,1.36,1.14,1.7,1.55.67,3.07,1.4,4.59,2.15,7.69,3.81,15.39,7.61,23.05,11.47a13.91,13.91,0,0,0,8.86,1.17,139.8,139.8,0,0,0,24.69-6.81A1,1,0,0,0,353.25,228.44Z" transform="translate(-246.5 -117.2)"/></g><g id="inner"><path d="M353.88,234.62a2.16,2.16,0,0,1,2.21.42,7.05,7.05,0,0,0,3.37,1.67c3,.25,6.09.15,9.13.1a3.17,3.17,0,0,0,2.76-2.47,2.92,2.92,0,0,0-1.91-2.62,5.64,5.64,0,0,0-1.87-.35c-2,0-3.93,0-5.89,0-2.6,0-2.79-.18-2.93-2.81,0-.37,0-.75,0-1.12v-8.12c0-2.81,0-5.62,0-8.43a17.72,17.72,0,0,1,.32-2.61c.11-.67.49-1,1.27-1,5,0,9.95,0,14.93,0,1.8,0,3.47-1.34,3.48-2.75s-1.6-2.73-3.47-2.74q-7.26,0-14.53,0a6.67,6.67,0,0,0-5.7,3,1.8,1.8,0,0,1-2.12.8,42.23,42.23,0,0,0-15,.11,17.29,17.29,0,0,0-9.81,4.92,2.18,2.18,0,0,1-1.74.74c-3.28,0-6.58-.06-9.84.26a9.28,9.28,0,0,0-7.49,4.59c-.74,1.26-.82,1.26-2.2.75-3.86-1.42-7.74-2.81-11.61-4.2a7.56,7.56,0,0,0-7,1.18c-2.37,1.57-3.87,4.95-3.32,7.37a6.86,6.86,0,0,0,4.1,4.84c3.24,1.52,6.46,3.1,9.67,4.69l19.73,9.74a12.49,12.49,0,0,0,8.26,1.31c4.66-1,9.36-1.83,13.95-3S349.45,236.06,353.88,234.62Zm-34.95.54c-7.66-3.86-15.36-7.66-23.05-11.47-1.52-.75-3-1.48-4.59-2.15-.79-.34-1.32-.71-1.14-1.7a2.08,2.08,0,0,1,1.7-1.89,6,6,0,0,1,2.4.16c4.23,1.49,8.43,3.07,12.64,4.63a8.94,8.94,0,0,1,3.53,2.24,8,8,0,0,0,5.83,2.25c6,.13,12,.12,18.07.17h.1c1.62-.09,3.19-1.44,3.2-2.74s-1.53-2.7-3.19-2.74c-2.81,0-5.62,0-8.43,0v-.14c-3.18,0-6.36,0-9.54,0a5.09,5.09,0,0,1-1.5-.22c-.59-.18-1.48,0-1.59-.93s-.21-2.17.9-2.68a9.41,9.41,0,0,1,3.35-1c3.24-.15,6.5-.12,9.74-.09a4.1,4.1,0,0,0,3.77-1.92c1.32-2,3.4-2.86,5.58-3.44,5.19-1.36,10.46-1.14,15.72-.5.65.08.83.37.82,1q0,8.22,0,16.45a1,1,0,0,1-.77,1.08,139.8,139.8,0,0,1-24.69,6.81A13.91,13.91,0,0,1,318.93,235.16Z" transform="translate(-246.5 -117.2)"/><path d="M325.5,200a26.22,26.22,0,0,0,25.77-26.65c-.37-13.62-11.63-25.2-25.62-25.21a26,26,0,0,0-26.16,26.53A26.31,26.31,0,0,0,325.5,200Zm-.61-46.45a20.26,20.26,0,0,1,21,20.54c-.16,11.63-8.84,20.42-20.46,20.42a20.48,20.48,0,0,1-.51-41Z" transform="translate(-246.5 -117.2)"/><path d="M326.87,179.51c-1.84.32-3.61.38-5.08-1.14a2.38,2.38,0,0,0-3.6-.19,2.47,2.47,0,0,0-.18,3.63,8,8,0,0,0,3.78,2.63,1.09,1.09,0,0,1,.9,1.1,3.17,3.17,0,0,0,2.56,2.78,2.77,2.77,0,0,0,2.64-2.14c.13-1.37.95-1.83,2-2.3a4.6,4.6,0,0,0,.6-.37c2.08-1.46,3.82-4.63,2.39-7.57a7.69,7.69,0,0,0-5.18-4.34,27.09,27.09,0,0,0-3.62-.41c-.6-.07-1.14-.23-1.18-1s-.06-1.55.95-1.71c1.75-.3,3.47-.49,5,.89,1.31,1.23,2.66,1.19,3.75,0a2.41,2.41,0,0,0-.24-3.74A43.57,43.57,0,0,0,328.4,163l-.21.15c-.06-.36-.08-.74-.17-1.09a2.66,2.66,0,0,0-5.32.27,1.28,1.28,0,0,1-1.11,1.38,2.73,2.73,0,0,0-.45.23c-3.21,1.77-4.58,5.26-3.14,8.21a7.65,7.65,0,0,0,5.47,4.29c1,.22,2.08.2,3.12.32.66.07,1.27.21,1.33,1.08S327.81,179.34,326.87,179.51Z" transform="translate(-246.5 -117.2)"/></g></svg>