<svg xmlns="http://www.w3.org/2000/svg" viewBox="0 0 163.8 163.8"><defs><style>.cls-1{fill:#a67c52;}</style></defs><title>electro</title><g id="outer"><path class="cls-1" d="M348.38,238.06a32.87,32.87,0,0,0,3.42-4.78,49.06,49.06,0,0,0,5.59-22.72,18.3,18.3,0,0,0-1.24-7.13,4.32,4.32,0,0,0-5.84-2.17c-2.15,1.11-4,.08-4.13-2.37a1.75,1.75,0,0,0-1.43-1.83c-1.41-.38-1.95-.2-2.75,1.08-.62,1-1.43,1.84-2.67,1.69a2.79,2.79,0,0,1-2.29-2.19,4.23,4.23,0,0,1-.12-1.07,1.44,1.44,0,0,0-1.24-1.52,3.43,3.43,0,0,0-4.2,1.44,2.45,2.45,0,0,1-2.58,1.24,2.88,2.88,0,0,1-2.14-2.34,6,6,0,0,1-.08-1.27c0-6.86,0-13.73,0-20.59a3,3,0,0,0-2-3.09c-2.65-.63-5,.1-5,3.5v35.47a6.26,6.26,0,0,1-.16,1.56,2.8,2.8,0,0,1-2.28,2.17,2.67,2.67,0,0,1-2.59-1.64c-1.29-2.55-2.55-5.1-3.85-7.65a21.11,21.11,0,0,0-1.33-2.3,3.14,3.14,0,0,0-4-1.33,2.86,2.86,0,0,0-2,3.66,43.36,43.36,0,0,0,2.3,7.08,161.29,161.29,0,0,0,16.05,27,1.66,1.66,0,0,0,1.2.59q12,.06,24,0A1.78,1.78,0,0,0,348.38,238.06Z" transform="translate(-246.5 -117.2)"/><path class="cls-1" d="M410.3,199.1A81.9,81.9,0,1,0,328.4,281,81.9,81.9,0,0,0,410.3,199.1ZM296.75,164.83a4.54,4.54,0,0,1,.23-1c1.44-4.5,2.9-9,4.31-13.5a1.49,1.49,0,0,1,1.68-1.24c2.6.06,5.19,0,7.79,0,1.28,0,1.63.43,1.38,1.71a6.14,6.14,0,0,1-.35,1c-1,2.37-2,4.73-3,7.3,1.7,0,3.2-.05,4.7,0,.53,0,1.43.27,1.48.54a2.76,2.76,0,0,1-.36,2c-1.79,2.39-3.7,4.69-5.57,7-2.65,3.3-5.29,6.61-8,9.9a1.81,1.81,0,0,1-1,.7c-1.33.26-1.9-.47-1.48-1.92.67-2.23,1.4-4.44,2.1-6.66.46-1.43.91-2.86,1.41-4.4h-4C296.94,166.37,296.62,166,296.75,164.83Zm21.78,77.24a104.33,104.33,0,0,1-12.82-20c-2.19-4.36-4.2-8.82-6.19-13.29a24.16,24.16,0,0,1-1.38-4.6,6,6,0,0,1,.92-4.62,10.68,10.68,0,0,1,6.65-4.75c2.94-.65,5,.93,6.86,3,.24.26.41.6.68.84a4.19,4.19,0,0,0,.82.41,2.56,2.56,0,0,0,.3-.82c0-3.19,0-6.37,0-9.56,0-4.76,0-9.52,0-14.28a9.09,9.09,0,0,1,7.54-9.25c3.32-.59,6,.82,8.06,3.32a9,9,0,0,1,2,6c0,4.7,0,9.4,0,14.09v1.18c.58,0,1.06-.06,1.53-.11a7.15,7.15,0,0,1,6.38,2.35,1.67,1.67,0,0,0,1.46.23,7.27,7.27,0,0,1,8.76,2.91,1.48,1.48,0,0,0,1,.64c5.06.07,8.44,2.39,10.21,7.17a25.36,25.36,0,0,1,1.14,11.66A57.69,57.69,0,0,1,358,232c-1.58,3.59-3.33,7.07-6.14,9.9a6.44,6.44,0,0,1-5,2.09c-8.11-.09-16.22-.06-24.33,0A4.83,4.83,0,0,1,318.53,242.07Z" transform="translate(-246.5 -117.2)"/></g><g id="inner"><path d="M346.92,244a6.44,6.44,0,0,0,5-2.09c2.81-2.83,4.56-6.31,6.14-9.9a57.69,57.69,0,0,0,4.49-17.46,25.36,25.36,0,0,0-1.14-11.66c-1.77-4.78-5.15-7.1-10.21-7.17a1.48,1.48,0,0,1-1-.64,7.27,7.27,0,0,0-8.76-2.91,1.67,1.67,0,0,1-1.46-.23,7.15,7.15,0,0,0-6.38-2.35c-.47.05-.95.07-1.53.11v-1.18c0-4.69,0-9.39,0-14.09a9,9,0,0,0-2-6c-2.1-2.5-4.74-3.91-8.06-3.32a9.09,9.09,0,0,0-7.54,9.25c0,4.76,0,9.52,0,14.28,0,3.19,0,6.37,0,9.56a2.56,2.56,0,0,1-.3.82,4.19,4.19,0,0,1-.82-.41c-.27-.24-.44-.58-.68-.84-1.84-2-3.92-3.61-6.86-3a10.68,10.68,0,0,0-6.65,4.75,6,6,0,0,0-.92,4.62,24.16,24.16,0,0,0,1.38,4.6c2,4.47,4,8.93,6.19,13.29a104.33,104.33,0,0,0,12.82,20,4.83,4.83,0,0,0,4.06,1.93C330.7,244,338.81,243.92,346.92,244Zm-25-6a161.29,161.29,0,0,1-16.05-27,43.36,43.36,0,0,1-2.3-7.08,2.86,2.86,0,0,1,2-3.66,3.14,3.14,0,0,1,4,1.33,21.11,21.11,0,0,1,1.33,2.3c1.3,2.55,2.56,5.1,3.85,7.65a2.67,2.67,0,0,0,2.59,1.64,2.8,2.8,0,0,0,2.28-2.17,6.26,6.26,0,0,0,.16-1.56V173.94c0-3.4,2.34-4.13,5-3.5a3,3,0,0,1,2,3.09c0,6.86,0,13.73,0,20.59a6,6,0,0,0,.08,1.27,2.88,2.88,0,0,0,2.14,2.34,2.45,2.45,0,0,0,2.58-1.24,3.43,3.43,0,0,1,4.2-1.44,1.44,1.44,0,0,1,1.24,1.52,4.23,4.23,0,0,0,.12,1.07,2.79,2.79,0,0,0,2.29,2.19c1.24.15,2.05-.7,2.67-1.69.8-1.28,1.34-1.46,2.75-1.08a1.75,1.75,0,0,1,1.43,1.83c.14,2.45,2,3.48,4.13,2.37a4.32,4.32,0,0,1,5.84,2.17,18.3,18.3,0,0,1,1.24,7.13,49.06,49.06,0,0,1-5.59,22.72,32.87,32.87,0,0,1-3.42,4.78,1.78,1.78,0,0,1-1.25.54q-12,.06-24,0A1.66,1.66,0,0,1,321.89,238Z" transform="translate(-246.5 -117.2)"/><path d="M302.11,166.38c-.5,1.54-.95,3-1.41,4.4-.7,2.22-1.43,4.43-2.1,6.66-.42,1.45.15,2.18,1.48,1.92a1.81,1.81,0,0,0,1-.7c2.67-3.29,5.31-6.6,8-9.9,1.87-2.34,3.78-4.64,5.57-7a2.76,2.76,0,0,0,.36-2c0-.27-.95-.51-1.48-.54-1.5-.07-3,0-4.7,0,1.06-2.57,2-4.93,3-7.3a6.14,6.14,0,0,0,.35-1c.25-1.28-.1-1.7-1.38-1.71-2.6,0-5.19,0-7.79,0a1.49,1.49,0,0,0-1.68,1.24c-1.41,4.51-2.87,9-4.31,13.5a4.54,4.54,0,0,0-.23,1c-.13,1.2.19,1.54,1.4,1.55Z" transform="translate(-246.5 -117.2)"/></g></svg>