<svg xmlns="http://www.w3.org/2000/svg" viewBox="0 0 163.8 163.8"><defs><style>.cls-1{fill:#a67c52;}</style></defs><title>graphics</title><g id="outer"><path class="cls-1" d="M296.25,198.7a4.8,4.8,0,0,1-1.51-1.82c-.94-1.84-1.73-3.76-2.63-5.63a31.88,31.88,0,0,0-2.25-4.2,4.07,4.07,0,0,0-2.14-1.5,16.83,16.83,0,0,0-3.62-.06,22.9,22.9,0,0,0,.77,2.4c.4.91,1,1.73,1.36,2.65,1.67,4.23,3.22,8.5,4.95,12.71a28.4,28.4,0,0,0,2.49,4.47c.19.32.88.44,1.33.43.24,0,.6-.45.68-.76.54-1.92,1-3.85,1.51-5.79A2.31,2.31,0,0,0,296.25,198.7Z" transform="translate(-246.5 -117.2)"/><path class="cls-1" d="M366.26,206.24a1.31,1.31,0,0,0,2.18.88,16.06,16.06,0,0,0,2.12-1.56c2.34-2,4.86-3.91,5.74-6.92,1.15-3.89.38-6.5-3.54-6.84-3.29-.28-6.61-.06-10.17-.06a22.68,22.68,0,0,0,.35,2.37C364,198.16,365.15,202.2,366.26,206.24Z" transform="translate(-246.5 -117.2)"/><path class="cls-1" d="M410.3,199.1A81.9,81.9,0,1,0,328.4,281,81.9,81.9,0,0,0,410.3,199.1Zm-103.7,33c-3.26-1.4-5.09-3.63-4.64-7.34a8,8,0,0,0,0-1,14.54,14.54,0,0,1-7.38-8,1.68,1.68,0,0,0-.73-.74,15.57,15.57,0,0,1-6.59-7.24c-1.81-4-3.37-8.19-5-12.31-1.06-2.68-2-5.45-3.94-7.62a18.43,18.43,0,0,0-3.22-2.39,3,3,0,0,0-.66-.28c-1.48-.63-2.43-1.83-2.27-2.9a3.78,3.78,0,0,1,3.1-2.8,15.18,15.18,0,0,1,1.91-.06c3.16,0,6.32.07,9.48,0a7.88,7.88,0,0,1,6.33,2.83,24,24,0,0,1,5,8.5c.22.64.41,1.14,1.28,1.12s.83-.61,1-1.1c.52-1.72,1.1-3.43,1.51-5.18a6.91,6.91,0,0,1,3.7-4.6,27.87,27.87,0,0,1,9.24-2.8c2.29-.38,4.59-.62,7.2-1a12.68,12.68,0,0,0-.48-2c-1.34-3.17-.57-5.54,2.61-6.82a17.22,17.22,0,0,1,15.05.54c2.28,1.2,2.85,3.34,1.89,5.72a19.93,19.93,0,0,0-.68,2.55c3.43.51,6.61.84,9.72,1.51a40,40,0,0,1,6.79,2.25,5.12,5.12,0,0,1,3.37,3.93c.12.74.58.8,1.2.8,3.12,0,6.24-.09,9.35,0,3.73.11,7.11,1.22,9.57,4.21a9.6,9.6,0,0,1,1.47,10.34c-1.84,4.56-5.31,7.72-9.14,10.54-1.32,1-2.78,1.74-4.13,2.66a1.9,1.9,0,0,0-.87,1,12,12,0,0,1-5.93,8.19,2.53,2.53,0,0,0-1.42,2.68c.31,3.35-1.51,5.39-4.35,6.73a34.46,34.46,0,0,1-11.73,2.74,141.66,141.66,0,0,1-25.39,0A38.75,38.75,0,0,1,306.6,232.1Z" transform="translate(-246.5 -117.2)"/><path class="cls-1" d="M330.3,177h.84c2.6,0,2.6,0,3.33-1.83.5-1.28.16-1.93-1.18-2-1.54-.07-3.09,0-4.64,0-.8,0-1.08.4-1,1.21A2.52,2.52,0,0,0,330.3,177Z" transform="translate(-246.5 -117.2)"/><path class="cls-1" d="M337,229.24a69.66,69.66,0,0,0,14.39-1.61c2.9-.7,3-.67,2.9-3.64a5.24,5.24,0,0,1,2.7-4.74c1.1-.73,2.19-1.46,3.26-2.23a3.28,3.28,0,0,0,1.51-3.07,27.91,27.91,0,0,0-.64-4.49c-1.8-6.76-3.84-13.45-5.45-20.24-.64-2.71-2.1-3.71-4.55-4.32-6.58-1.65-13.26-2-20-2.11-4.86.32-9.74.47-14.58,1a53.77,53.77,0,0,0-8.1,2,2.09,2.09,0,0,0-1.1,1.24c-1.53,5-3.09,9.92-4.46,14.92-.89,3.27-1.55,6.61-2.2,9.94s.07,4.68,2.86,6.41c.82.5,1.62,1,2.42,1.56a4.22,4.22,0,0,1,2,3.84c0,.76,0,1.52,0,2.28a.86.86,0,0,0,.83,1.05c2.58.5,5.14,1.19,7.74,1.52A133.41,133.41,0,0,0,337,229.24Z" transform="translate(-246.5 -117.2)"/></g><g id="inner"><path d="M344.22,234.83A34.46,34.46,0,0,0,356,232.09c2.84-1.34,4.66-3.38,4.35-6.73a2.53,2.53,0,0,1,1.42-2.68,12,12,0,0,0,5.93-8.19,1.9,1.9,0,0,1,.87-1c1.35-.92,2.81-1.69,4.13-2.66,3.83-2.82,7.3-6,9.14-10.54a9.6,9.6,0,0,0-1.47-10.34c-2.46-3-5.84-4.1-9.57-4.21-3.11-.1-6.23,0-9.35,0-.62,0-1.08-.06-1.2-.8a5.12,5.12,0,0,0-3.37-3.93,40,40,0,0,0-6.79-2.25c-3.11-.67-6.29-1-9.72-1.51a19.93,19.93,0,0,1,.68-2.55c1-2.38.39-4.52-1.89-5.72a17.22,17.22,0,0,0-15.05-.54c-3.18,1.28-3.95,3.65-2.61,6.82a12.68,12.68,0,0,1,.48,2c-2.61.34-4.91.58-7.2,1a27.87,27.87,0,0,0-9.24,2.8,6.91,6.91,0,0,0-3.7,4.6c-.41,1.75-1,3.46-1.51,5.18-.15.49-.14,1.08-1,1.1s-1.06-.48-1.28-1.12a24,24,0,0,0-5-8.5,7.88,7.88,0,0,0-6.33-2.83c-3.16.09-6.32,0-9.48,0a15.18,15.18,0,0,0-1.91.06,3.78,3.78,0,0,0-3.1,2.8c-.16,1.07.79,2.27,2.27,2.9a3,3,0,0,1,.66.28,18.43,18.43,0,0,1,3.22,2.39c2,2.17,2.88,4.94,3.94,7.62,1.63,4.12,3.19,8.27,5,12.31a15.57,15.57,0,0,0,6.59,7.24,1.68,1.68,0,0,1,.73.74,14.54,14.54,0,0,0,7.38,8,8,8,0,0,1,0,1c-.45,3.71,1.38,5.94,4.64,7.34a38.75,38.75,0,0,0,12.23,2.72A141.66,141.66,0,0,0,344.22,234.83Zm-47-33.23c-.49,1.94-1,3.87-1.51,5.79-.08.31-.44.75-.68.76-.45,0-1.14-.11-1.33-.43a28.4,28.4,0,0,1-2.49-4.47c-1.73-4.21-3.28-8.48-4.95-12.71-.36-.92-1-1.74-1.36-2.65a22.9,22.9,0,0,1-.77-2.4,16.83,16.83,0,0,1,3.62.06,4.07,4.07,0,0,1,2.14,1.5,31.88,31.88,0,0,1,2.25,4.2c.9,1.87,1.69,3.79,2.63,5.63a4.8,4.8,0,0,0,1.51,1.82A2.31,2.31,0,0,1,297.19,201.6Zm75.57-9.8c3.92.34,4.69,2.95,3.54,6.84-.88,3-3.4,5-5.74,6.92a16.06,16.06,0,0,1-2.12,1.56,1.31,1.31,0,0,1-2.18-.88c-1.11-4-2.24-8.08-3.32-12.13a22.68,22.68,0,0,1-.35-2.37C366.15,191.74,369.47,191.52,372.76,191.8Zm-44.11-18.62c1.55,0,3.1-.07,4.64,0,1.34.06,1.68.71,1.18,2-.73,1.83-.73,1.83-3.33,1.83h-.84a2.52,2.52,0,0,1-2.69-2.61C327.57,173.58,327.85,173.19,328.65,173.18ZM316.5,228.55c-2.6-.33-5.16-1-7.74-1.52a.86.86,0,0,1-.83-1.05c.05-.76,0-1.52,0-2.28a4.22,4.22,0,0,0-2-3.84c-.8-.53-1.6-1.06-2.42-1.56-2.79-1.73-3.49-3.16-2.86-6.41s1.31-6.67,2.2-9.94c1.37-5,2.93-10,4.46-14.92a2.09,2.09,0,0,1,1.1-1.24,53.77,53.77,0,0,1,8.1-2c4.84-.54,9.72-.69,14.58-1,6.74.11,13.42.46,20,2.11,2.45.61,3.91,1.61,4.55,4.32,1.61,6.79,3.65,13.48,5.45,20.24a27.91,27.91,0,0,1,.64,4.49,3.28,3.28,0,0,1-1.51,3.07c-1.07.77-2.16,1.5-3.26,2.23a5.24,5.24,0,0,0-2.7,4.74c.07,3,0,2.94-2.9,3.64A69.66,69.66,0,0,1,337,229.24,133.41,133.41,0,0,1,316.5,228.55Z" transform="translate(-246.5 -117.2)"/></g></svg>