<svg xmlns="http://www.w3.org/2000/svg" viewBox="0 0 163.8 163.8"><defs><style>.cls-1{fill:#a67c52;}</style></defs><title>tomato</title><g id="outer"><path class="cls-1" d="M410.3,199.1A81.9,81.9,0,1,0,328.4,281,81.9,81.9,0,0,0,410.3,199.1ZM305.77,231.84c-9.59-5-16-12.55-17.72-23.39-1.31-8.28-.51-16.43,3.82-23.87C295.69,178,301.52,174.3,309,173c1.08-.18,2.17-.28,3.31-.42a23,23,0,0,1-.46-2.5c-.15-1.89.71-2.83,2.58-2.61s3.47.66,5.2,1c1.46.31,2.92.65,4.49,1,.05-.38.11-.72.13-1.07.08-1.47.15-2.93.24-4.4.1-1.63.82-2.32,2.42-2.34s3.3,0,4.95,0,2.26.71,2.37,2.29.24,3.47.36,5.31l1.69-.38,6.32-1.52a5.49,5.49,0,0,1,.9-.17c1.94-.24,2.91.63,2.8,2.58-.06.87-.26,1.73-.38,2.56,2,.41,4,.7,5.87,1.23,7.64,2.1,13.34,6.69,16.39,14,4.2,10.1,4.33,20.31-.67,30.21-3.49,6.92-9.22,11.59-16.2,14.79-8,3.66-16.44,4.69-25.13,4.3A48.16,48.16,0,0,1,305.77,231.84Z" transform="translate(-246.5 -117.2)"/><path class="cls-1" d="M321,182.87a5.82,5.82,0,0,1,5.24,2.85,46,46,0,0,0,3.23,4.19,50.49,50.49,0,0,0,3-4.19,5.8,5.8,0,0,1,5.12-3c2.13-.13,4.24-.58,6.55-.92a25.91,25.91,0,0,0-2.27-1.58,3.16,3.16,0,0,1-1.55-3.89c.27-1.15.43-2.32.67-3.61l-6.1,1.45c0,.36,0,.66,0,1,0,.94.14,1.89.12,2.83a2,2,0,0,1-2.33,2.2c-1.48,0-2.15-.58-2.27-2.06-.21-2.52-.33-5.06-.49-7.58-.07-1.16-.12-2.32-.22-3.48,0-.21-.23-.41-.35-.61a2.83,2.83,0,0,0-.42.56,2.18,2.18,0,0,0-.05.63c-.2,3.51-.39,7-.59,10.52-.08,1.4-.9,2.06-2.49,2a2,2,0,0,1-2.12-2.09c0-1.22,0-2.43,0-3.74l-6.41-1.39c.3,1.33.55,2.51.82,3.69.35,1.5.17,2.76-1.3,3.64a27.92,27.92,0,0,0-2.29,1.72c.18.11.25.18.33.19C316.88,182.4,318.93,182.78,321,182.87Z" transform="translate(-246.5 -117.2)"/><path class="cls-1" d="M365.36,210.15a29.78,29.78,0,0,0-.42-17.41,20.83,20.83,0,0,0-12.06-13.68,23.84,23.84,0,0,0-6.4-1.71c.41.32.58.47.77.6,1.55,1.09,3.09,2.19,4.65,3.25,1.09.74,1.05,1.81.86,2.87s-.91,1.35-1.85,1.49c-4.11.58-8.21,1.2-12.33,1.77a2.66,2.66,0,0,0-2.08,1.2c-1.55,2.27-3.22,4.46-4.85,6.67a2.57,2.57,0,0,1-4.27.08c-1.82-2.34-3.62-4.7-5.46-7a1.88,1.88,0,0,0-1.1-.66c-2.14-.32-4.3-.56-6.45-.83s-4.3-.51-6.45-.79c-1.44-.19-2.06-.84-2.15-2.17a2.48,2.48,0,0,1,1.05-2.3c1.85-1.34,3.67-2.72,5.5-4.09l-.08-.16c-.42.06-.84.1-1.26.17a20.32,20.32,0,0,0-10.82,4.75,23,23,0,0,0-7.17,13,29.75,29.75,0,0,0,.91,16.87c3,7.82,8.67,13,16.12,16.41a44.4,44.4,0,0,0,17,3.84c8.72.34,17-1.08,24.72-5.42C358.39,223.08,363.17,217.64,365.36,210.15Zm-6.24-20.72a2.39,2.39,0,0,1,3.12,1.64,31.63,31.63,0,0,1,1.92,11.77c0,.67-.07,1.89-.16,3.11-.11,1.59-.9,2.19-2.67,2.11-1.3-.06-2-.81-1.93-2.26a32.48,32.48,0,0,0-.34-8.3c-.32-1.46-.79-2.88-1.19-4.31a5.84,5.84,0,0,1-.28-1.15C357.49,190.46,358,189.67,359.12,189.43Zm.71,19.89a2.52,2.52,0,0,1,.07,5c-1.74,0-2.54-.76-2.54-2.48S358.16,209.32,359.83,209.32Z" transform="translate(-246.5 -117.2)"/></g><g id="inner"><path d="M351.26,232.62c7-3.2,12.71-7.87,16.2-14.79,5-9.9,4.87-20.11.67-30.21-3.05-7.33-8.75-11.92-16.39-14-1.9-.53-3.86-.82-5.87-1.23.12-.83.32-1.69.38-2.56.11-1.95-.86-2.82-2.8-2.58a5.49,5.49,0,0,0-.9.17l-6.32,1.52-1.69.38c-.12-1.84-.23-3.58-.36-5.31s-.79-2.26-2.37-2.29-3.3,0-4.95,0-2.32.71-2.42,2.34c-.09,1.47-.16,2.93-.24,4.4,0,.35-.08.69-.13,1.07-1.57-.35-3-.69-4.49-1-1.73-.36-3.45-.82-5.2-1s-2.73.72-2.58,2.61a23,23,0,0,0,.46,2.5c-1.14.14-2.23.24-3.31.42-7.43,1.28-13.26,5-17.08,11.56-4.33,7.44-5.13,15.59-3.82,23.87,1.71,10.84,8.13,18.41,17.72,23.39a48.16,48.16,0,0,0,20.36,5.08C334.82,237.31,343.27,236.28,351.26,232.62Zm-34.48-52.39c1.47-.88,1.65-2.14,1.3-3.64-.27-1.18-.52-2.36-.82-3.69l6.41,1.39c0,1.31,0,2.52,0,3.74a2,2,0,0,0,2.12,2.09c1.59,0,2.41-.62,2.49-2,.2-3.51.39-7,.59-10.52a2.18,2.18,0,0,1,.05-.63,2.83,2.83,0,0,1,.42-.56c.12.2.33.4.35.61.1,1.16.15,2.32.22,3.48.16,2.52.28,5.06.49,7.58.12,1.48.79,2,2.27,2.06a2,2,0,0,0,2.33-2.2c0-.94-.08-1.89-.12-2.83,0-.3,0-.6,0-1l6.1-1.45c-.24,1.29-.4,2.46-.67,3.61a3.16,3.16,0,0,0,1.55,3.89,25.91,25.91,0,0,1,2.27,1.58c-2.31.34-4.42.79-6.55.92a5.8,5.8,0,0,0-5.12,3,50.49,50.49,0,0,1-3,4.19,46,46,0,0,1-3.23-4.19,5.82,5.82,0,0,0-5.24-2.85c-2.06-.09-4.11-.47-6.17-.73-.08,0-.15-.08-.33-.19A27.92,27.92,0,0,1,316.78,180.23ZM327,232.3a44.4,44.4,0,0,1-17-3.84c-7.45-3.4-13.16-8.59-16.12-16.41a29.75,29.75,0,0,1-.91-16.87,23,23,0,0,1,7.17-13A20.32,20.32,0,0,1,311,177.44c.42-.07.84-.11,1.26-.17l.08.16c-1.83,1.37-3.65,2.75-5.5,4.09a2.48,2.48,0,0,0-1.05,2.3c.09,1.33.71,2,2.15,2.17,2.15.28,4.3.53,6.45.79s4.31.51,6.45.83a1.88,1.88,0,0,1,1.1.66c1.84,2.31,3.64,4.67,5.46,7a2.57,2.57,0,0,0,4.27-.08c1.63-2.21,3.3-4.4,4.85-6.67a2.66,2.66,0,0,1,2.08-1.2c4.12-.57,8.22-1.19,12.33-1.77.94-.14,1.68-.51,1.85-1.49s.23-2.13-.86-2.87c-1.56-1.06-3.1-2.16-4.65-3.25-.19-.13-.36-.28-.77-.6a23.84,23.84,0,0,1,6.4,1.71,20.83,20.83,0,0,1,12.06,13.68,29.78,29.78,0,0,1,.42,17.41c-2.19,7.49-7,12.93-13.67,16.73C344,231.22,335.69,232.64,327,232.3Z" transform="translate(-246.5 -117.2)"/><path d="M357.87,193.19c.4,1.43.87,2.85,1.19,4.31a32.48,32.48,0,0,1,.34,8.3c-.06,1.45.63,2.2,1.93,2.26,1.77.08,2.56-.52,2.67-2.11.09-1.22.13-2.44.16-3.11a31.63,31.63,0,0,0-1.92-11.77,2.39,2.39,0,0,0-3.12-1.64c-1.15.24-1.63,1-1.53,2.61A5.84,5.84,0,0,0,357.87,193.19Z" transform="translate(-246.5 -117.2)"/><path d="M359.9,214.35a2.52,2.52,0,0,0-.07-5c-1.67,0-2.48.83-2.47,2.55S358.16,214.36,359.9,214.35Z" transform="translate(-246.5 -117.2)"/></g></svg>