<svg xmlns="http://www.w3.org/2000/svg" viewBox="0 0 163.8 163.8"><defs><style>.cls-1{fill:#f7931e;}</style></defs><title>tomato-2</title><g id="outer"><path class="cls-1" d="M320,243a81.9,81.9,0,1,0-81.9,81.9A81.9,81.9,0,0,0,320,243ZM192.35,254.07c-2-10.08-.84-21.22,4.84-30,5.2-8,13.35-11.42,22.54-12.48-.53-3.43-1.18-5.69,2.87-5.74,3.37,0,7.45,1.47,10.7,2.19.33-5-.8-8.75,5-8.93,1.94-.07,4.71-.56,6.06,1.05,1.19,1.41.78,6,.89,7.66,2.57-.62,9.74-3.71,12.08-2.22,1.31.83,1.2,1.67,1.21,3.17s-.55,1.85.39,2.73c.46.43,3.26.57,3.77.68,7,1.51,13.47,5,17.76,10.83,10.35,14.2,8.55,36-3.53,48.53C254.52,294.73,199.51,289.46,192.35,254.07Z" transform="translate(-156.2 -161.11)"/><path class="cls-1" d="M239.42,231.39c1.8-2.47,3.57-6.36,6.38-7.71s7.4-1.17,10.39-1.6c-4.71-3.35-4.61-4.9-3.61-10.39-1.55.37-3.82.49-5.25,1.26-2.67,1.42-1.1.07-1.67,2.6-.45,2,.7,4.27-2.2,4.65-5.6.73-2.39-12.83-4.23-15.7-2.36,3.25,1.78,14.74-3.36,15.64-2.82.49-2.9-1.74-3.07-3.77-.22-2.47.55-2-1.76-3.22-1.47-.79-4-.86-5.56-1.21.38,1.74,1.4,4.25,1,6-.44,2.12-2.74,3.24-4.36,4.49,3.19.39,7.7.08,10.61,1.41C235.49,225.08,237.63,229.09,239.42,231.39Z" transform="translate(-156.2 -161.11)"/><path class="cls-1" d="M280,256c5.38-15.63-2.23-37.53-20.86-38.77,2.05,1.53,8.28,4,6.93,7.48-1.11,2.85-7.69,2.5-10.16,2.86-1.85.26-4.27.2-6,.86-2.34.87-3.11,2.44-4.56,4.45-1.64,2.26-3.51,6.59-6.84,5.65s-4.78-6.57-7.34-8.73c-2.75-2.32-8.63-1.94-12.17-2.38-2.55-.32-8.39-.31-6.2-4.72,1.17-2.37,5.31-4.22,7.34-5.81-18.23,2.33-27.08,20.88-21.94,37.89,5.22,17.27,23.58,24.89,40.3,25.1S274.09,273.1,280,256ZM275.9,231.3c3.38,2.28,3.16,11.43,3.18,14.89-.1,2-1,9.25-4.92,5.24-1.28-1.31-.38-5.14-.42-6.65a33.61,33.61,0,0,0-1.38-8C271.7,234.29,271.49,228.34,275.9,231.3Z" transform="translate(-156.2 -161.11)"/></g><g id="inner"><path d="M276.91,271.57c12.08-12.5,13.88-34.33,3.53-48.53-4.29-5.87-10.75-9.32-17.76-10.83-.51-.11-3.31-.25-3.77-.68-.94-.88-.38-1.16-.39-2.73s.1-2.34-1.21-3.17c-2.34-1.49-9.51,1.6-12.08,2.22-.11-1.68.3-6.25-.89-7.66-1.35-1.61-4.12-1.12-6.06-1.05-5.78.18-4.65,3.9-5,8.93-3.25-.72-7.33-2.24-10.7-2.19-4,.05-3.4,2.31-2.87,5.74-9.19,1.06-17.34,4.47-22.54,12.48-5.68,8.75-6.87,19.89-4.84,30C199.51,289.46,254.52,294.73,276.91,271.57Zm-50.39-53.63c.36-1.75-.66-4.26-1-6,1.6.35,4.09.42,5.56,1.21,2.31,1.25,1.54.75,1.76,3.22.17,2,.25,4.26,3.07,3.77,5.14-.9,1-12.39,3.36-15.64,1.84,2.87-1.37,16.43,4.23,15.7,2.9-.38,1.75-2.69,2.2-4.65.57-2.53-1-1.18,1.67-2.6,1.43-.77,3.7-.89,5.25-1.26-1,5.49-1.1,7,3.61,10.39-3,.43-7.68.29-10.39,1.6s-4.58,5.24-6.38,7.71c-1.79-2.3-3.93-6.31-6.65-7.55-2.91-1.33-7.42-1-10.61-1.41C223.78,221.18,226.08,220.06,226.52,217.94Zm-28.38,36.85c-5.14-17,3.71-35.56,21.94-37.89-2,1.59-6.17,3.44-7.34,5.81-2.19,4.41,3.65,4.4,6.2,4.72,3.54.44,9.42.06,12.17,2.38,2.56,2.16,4,7.78,7.34,8.73s5.2-3.39,6.84-5.65c1.45-2,2.22-3.58,4.56-4.45,1.77-.66,4.19-.6,6-.86,2.47-.36,9.05,0,10.16-2.86,1.35-3.47-4.88-5.95-6.93-7.48,18.63,1.24,26.24,23.14,20.86,38.77-5.89,17.09-24.8,24.09-41.54,23.88S203.36,272.06,198.14,254.79Z" transform="translate(-156.2 -161.11)"/><path d="M273.74,244.78c0,1.51-.86,5.34.42,6.65,3.9,4,4.82-3.21,4.92-5.24,0-3.46.2-12.61-3.18-14.89-4.41-3-4.2,3-3.54,5.46A33.61,33.61,0,0,1,273.74,244.78Z" transform="translate(-156.2 -161.11)"/></g></svg>